<?xml version="1.0" encoding="UTF-8"?>
<svg width="24px" height="24px" viewBox="0 0 24 24" version="1.1" xmlns="http://www.w3.org/2000/svg" xmlns:xlink="http://www.w3.org/1999/xlink">
    <!-- Generator: Sketch 48.2 (47327) - http://www.bohemiancoding.com/sketch -->
    <title>美术-normal</title>
    <desc>Created with Sketch.</desc>
    <defs></defs>
    <g id="Page-1" stroke="none" stroke-width="1" fill="none" fill-rule="evenodd" stroke-linejoin="round">
        <g id="美术-normal" stroke="#5E5E5E">
            <g id="Page-1" transform="translate(4.000000, 4.000000)">
                <path d="M6.76843636,15.5351273 C7.17570909,15.6020364 7.59316364,15.6369455 8.01861818,15.6369455 C11.7582545,15.6369455 14.8717091,12.9613091 15.5408,9.42530909 C15.5408,9.42530909 16.3008,6.03767273 13.5328,6.83694545 C13.1408,6.94967273 12.6389818,7.18312727 12.0993455,7.28349091" id="Stroke-1" stroke-linecap="round"></path>
                <path d="M9.54647273,6.31214545 C9.38356364,6.00450909 9.31883636,5.62632727 9.40029091,5.17105455 C9.54647273,4.35069091 10.3348364,3.75505455 10.3697455,2.46850909 C10.4286545,0.266327273 8.01847273,0.363781818 8.01847273,0.363781818 C3.79083636,0.363781818 0.363927273,3.78269091 0.363927273,8.00014545 C0.363927273,10.9906909 2.08610909,13.5790545 4.59592727,14.8321455" id="Stroke-3"></path>
                <path d="M6.96836364,9.40516364 C6.96836364,9.40516364 4.24327273,9.67498182 5.05345455,13.0291636 C5.05345455,13.0291636 5.32327273,14.9469818 3.40836364,15.4698909 C3.40836364,15.4698909 9.84036364,16.9237091 9.76690909,11.2415273 L6.96836364,9.40516364 Z" id="Stroke-5"></path>
                <path d="M6.96836364,9.40516364 L13.8243636,1.58043636 C13.8243636,1.58043636 14.4534545,0.783345455 14.8978182,1.06916364 C15.2541818,1.27352727 15.2541818,1.57170909 14.86,2.3208 L9.76690909,11.2415273 L6.96836364,9.40516364 Z" id="Stroke-7"></path>
                <path d="M8.5504,7.81425455 L10.7402182,9.17789091" id="Stroke-9"></path>
                <path d="M7.16225455,3.95345455 C7.16225455,4.57890909 6.65752727,5.08727273 6.03498182,5.08727273 C5.41170909,5.08727273 4.90698182,4.57890909 4.90698182,3.95345455 C4.90698182,3.32727273 5.41170909,2.81963636 6.03498182,2.81963636 C6.65752727,2.81963636 7.16225455,3.32727273 7.16225455,3.95345455 Z" id="Stroke-11"></path>
                <path d="M4.69352727,7.03163636 C4.69352727,7.65709091 4.1888,8.16545455 3.56625455,8.16545455 C2.94298182,8.16545455 2.43825455,7.65709091 2.43825455,7.03163636 C2.43825455,6.40545455 2.94298182,5.89781818 3.56625455,5.89781818 C4.1888,5.89781818 4.69352727,6.40545455 4.69352727,7.03163636 Z" id="Stroke-13"></path>
            </g>
        </g>
    </g>
</svg>