<?xml version="1.0" encoding="UTF-8"?>
<svg width="24px" height="24px" viewBox="0 0 24 24" version="1.1" xmlns="http://www.w3.org/2000/svg" xmlns:xlink="http://www.w3.org/1999/xlink">
    <!-- Generator: Sketch 48.2 (47327) - http://www.bohemiancoding.com/sketch -->
    <title>生物-hover</title>
    <desc>Created with Sketch.</desc>
    <defs></defs>
    <g id="Page-1" stroke="none" stroke-width="1" fill="none" fill-rule="evenodd">
        <g id="生物-hover">
            <path d="M12.5923825,12.4431514 L9.02512627,16.0104076 C8.63460197,16.4009319 8.001437,16.4009319 7.6109127,16.0104076 L5.48959236,13.8890873 C5.09906807,13.498563 5.09906807,12.865398 5.48959236,12.4748737 L13.267767,4.69669914 C13.6582912,4.30617485 14.2914562,4.30617485 14.6819805,4.69669914 L16.8033009,6.81801948 C17.1938252,7.20854378 17.1938252,7.84170876 16.8033009,8.23223305 L14.7007651,10.3347688 C13.745433,9.77825626 13.0426388,9.77825626 12.5923825,10.3347688 C12.1421262,10.8912813 12.1421262,11.5940755 12.5923825,12.4431514 Z" id="Rectangle-3" fill="#D8D8D8"></path>
            <path d="M8.67157288,15.6568542 L16.4497475,7.87867966 C16.6450096,7.68341751 16.6450096,7.36683502 16.4497475,7.17157288 L14.3284271,5.05025253 C14.133165,4.85499039 13.8165825,4.85499039 13.6213203,5.05025253 L5.84314575,12.8284271 C5.6478836,13.0236893 5.6478836,13.3402718 5.84314575,13.5355339 L7.96446609,15.6568542 C8.15972824,15.8521164 8.47631073,15.8521164 8.67157288,15.6568542 Z" id="Rectangle-3" stroke="#5E5E5E"></path>
            <path d="M3.01471863,13.5355339 L7.96446609,18.4852814 L3.01471863,13.5355339 Z" id="Path-8" stroke="#5E5E5E"></path>
            <path d="M7.25735931,12.1213203 L9.37867966,14.2426407 L7.25735931,12.1213203 Z" id="Path-8" stroke="#5E5E5E"></path>
            <path d="M15.7426407,3.63603897 L17.863961,5.75735931 L15.7426407,3.63603897 Z" id="Path-8" stroke="#5E5E5E"></path>
            <path d="M12.2071068,12.1213203 C11.6213203,11.5355339 11.6213203,10.5857864 12.2071068,10 C12.7928932,9.41421356 13.7426407,9.41421356 14.3284271,10 C14.9142136,10.5857864 14.9142136,11.5355339 14.3284271,12.1213203 C13.7426407,12.7071068 12.7928932,12.7071068 12.2071068,12.1213203 Z" id="Oval" stroke="#5E5E5E"></path>
            <path d="M14.5781813,11.8999996 C16.9135819,12.7500159 18.1177237,15.3323065 17.2677074,17.6677071 C16.596644,19.5114387 14.8565477,20.5205284 13,20.5" id="Oval-2" stroke="#5E5E5E"></path>
            <path d="M8,20.5 L19.0092561,20.5" id="Path-9" stroke="#5E5E5E"></path>
        </g>
    </g>
</svg>