<?xml version="1.0" encoding="UTF-8"?>
<svg width="24px" height="24px" viewBox="0 0 24 24" version="1.1" xmlns="http://www.w3.org/2000/svg" xmlns:xlink="http://www.w3.org/1999/xlink">
    <!-- Generator: Sketch 48.2 (47327) - http://www.bohemiancoding.com/sketch -->
    <title>生物-normal</title>
    <desc>Created with Sketch.</desc>
    <defs></defs>
    <g id="Page-1" stroke="none" stroke-width="1" fill="none" fill-rule="evenodd">
        <g id="生物-normal" stroke="#5E5E5E">
            <g id="Group" transform="translate(3.000000, 3.000000)">
                <path d="M5.67157288,12.6568542 L13.4497475,4.87867966 C13.6450096,4.68341751 13.6450096,4.36683502 13.4497475,4.17157288 L11.3284271,2.05025253 C11.133165,1.85499039 10.8165825,1.85499039 10.6213203,2.05025253 L2.84314575,9.82842712 C2.6478836,10.0236893 2.6478836,10.3402718 2.84314575,10.5355339 L4.96446609,12.6568542 C5.15972824,12.8521164 5.47631073,12.8521164 5.67157288,12.6568542 Z" id="Rectangle-3"></path>
                <path d="M0.0147186258,10.5355339 L4.96446609,15.4852814 L0.0147186258,10.5355339 Z" id="Path-8"></path>
                <path d="M4.25735931,9.12132034 L6.37867966,11.2426407 L4.25735931,9.12132034 Z" id="Path-8"></path>
                <path d="M12.7426407,0.636038969 L14.863961,2.75735931 L12.7426407,0.636038969 Z" id="Path-8"></path>
                <path d="M9.20710678,9.12132034 C8.62132034,8.53553391 8.62132034,7.58578644 9.20710678,7 C9.79289322,6.41421356 10.7426407,6.41421356 11.3284271,7 C11.9142136,7.58578644 11.9142136,8.53553391 11.3284271,9.12132034 C10.7426407,9.70710678 9.79289322,9.70710678 9.20710678,9.12132034 Z" id="Oval"></path>
                <path d="M11.5781813,8.89999962 C13.9135819,9.75001591 15.1177237,12.3323065 14.2677074,14.6677071 C13.596644,16.5114387 11.8565477,17.5205284 10,17.5" id="Oval-2"></path>
                <path d="M5,17.5 L16.0092561,17.5" id="Path-9"></path>
            </g>
        </g>
    </g>
</svg>