<?xml version="1.0" encoding="UTF-8"?>
<svg width="24px" height="24px" viewBox="0 0 24 24" version="1.1" xmlns="http://www.w3.org/2000/svg" xmlns:xlink="http://www.w3.org/1999/xlink">
    <!-- Generator: Sketch 48.2 (47327) - http://www.bohemiancoding.com/sketch -->
    <title>语文-normal</title>
    <desc>Created with Sketch.</desc>
    <defs></defs>
    <g id="Page-1" stroke="none" stroke-width="1" fill="none" fill-rule="evenodd">
        <g id="语文-normal">
            <g id="Group" transform="translate(4.000000, 4.000000)">
                <rect id="Rectangle-5" stroke="#5E5E5E" x="0.5" y="0.5" width="15" height="15" rx="2"></rect>
                <path d="M0,8 L3,8" id="Path-6" stroke="#5E5E5E"></path>
                <path d="M13,8 L16,8" id="Path-6" stroke="#5E5E5E"></path>
                <path d="M6.5,1.5 L9.5,1.5" id="Path-6" stroke="#5E5E5E" transform="translate(8.000000, 1.500000) rotate(-270.000000) translate(-8.000000, -1.500000) "></path>
                <path d="M6.5,14.5 L9.5,14.5" id="Path-6" stroke="#5E5E5E" transform="translate(8.000000, 14.500000) rotate(-270.000000) translate(-8.000000, -14.500000) "></path>
                <path d="M4.51350001,4.922 C4.21950001,4.32 4.10750001,3.83 4.21950001,3.41 C4.41550001,2.892 4.62550001,2.766 4.89150001,2.976 C4.97550001,3.046 5.05950001,3.214 5.18550001,3.452 C5.29750001,3.718 5.43750001,3.942 5.61950001,4.11 C5.77350001,4.306 5.91350001,4.488 6.03950001,4.642 C6.09550001,4.712 6.06750001,4.824 5.96950001,4.964 C5.85750001,5.104 5.67550001,5.146 5.45150001,5.118 C5.17150001,5.104 4.96150001,5.09 4.82150001,5.076 C4.65350001,5.076 4.54150001,5.034 4.51350001,4.922 Z M2.69350001,9.696 C2.58150001,8.87 2.69350001,8.016 3.02950001,7.106 C3.29550001,6.21 3.54750001,5.846 3.77150001,6.014 C3.98150001,6.182 4.19150001,6.364 4.41550001,6.574 C4.59750001,6.798 4.49950001,7.008 4.13550001,7.218 C3.70150001,7.554 3.42150001,8.142 3.32350001,8.996 C3.22550001,9.836 3.28150001,10.326 3.49150001,10.41 C3.82750001,10.55 4.23350001,10.382 4.73750001,9.892 C5.19950001,9.416 5.59150001,8.842 5.91350001,8.17 C6.08150001,7.792 6.13750001,7.876 6.09550001,8.394 C5.92750001,9.024 5.71750001,9.584 5.49350001,10.046 C5.24150001,10.522 4.89150001,10.998 4.42950001,11.502 C4.23350001,11.698 4.06550001,11.922 3.92550001,12.146 C3.77150001,12.398 3.57550001,12.258 3.36550001,11.712 C2.98750001,11.194 2.74950001,10.522 2.69350001,9.696 Z M9.24550001,9.472 C8.54550001,10.396 7.59350001,11.054 6.44550001,11.418 C6.12350001,11.53 5.81550001,11.544 5.56350001,11.474 C5.28350001,11.404 5.26950001,11.32 5.52150001,11.222 C6.55750001,10.844 7.45350001,10.13 8.25150001,9.094 C8.30750001,9.01 8.36350001,8.926 8.41950001,8.828 C7.90150001,8.45 7.57950001,8.142 7.46750001,7.904 C7.31350001,7.596 7.04750001,7.442 6.72550001,7.4 C6.27750001,7.316 6.19350001,7.008 6.44550001,6.476 C6.66950001,5.958 6.85150001,5.846 7.04750001,6.126 C7.07550001,6.406 7.25750001,6.644 7.59350001,6.812 C7.84550001,6.952 8.26550001,7.386 8.89550001,8.058 C9.30150001,7.386 9.58150001,6.798 9.72150001,6.28 C9.91750001,5.538 9.88950001,5.146 9.66550001,5.118 C9.27350001,5.076 8.64350001,5.23 7.80350001,5.622 C7.69150001,5.678 7.53750001,5.594 7.36950001,5.356 C7.14550001,5.146 7.14550001,5.034 7.36950001,4.978 C7.88750001,4.754 8.47550001,4.53 9.11950001,4.25 C9.74950001,3.984 10.2395,3.942 10.5895,4.068 C10.8835,4.138 11.2335,4.306 11.6255,4.572 C12.0175,4.852 12.0455,5.062 11.7375,5.188 C11.2755,5.356 10.8975,5.804 10.6315,6.546 C10.3235,7.302 10.0015,8.044 9.67950001,8.814 C9.65150001,8.856 9.62350001,8.898 9.60950001,8.926 C10.2115,9.612 10.7575,10.116 11.2755,10.438 C11.5415,10.634 11.9335,10.83 12.4375,10.998 C12.9275,11.194 13.5855,11.516 14.4115,11.936 C14.7195,12.118 14.8735,12.216 14.8735,12.272 C14.8455,12.328 14.4815,12.398 13.8095,12.468 C12.7735,12.524 11.6955,12.384 10.6035,12.048 C10.3515,11.95 10.2535,11.852 10.2815,11.754 C10.2955,11.67 10.3095,11.544 10.3095,11.362 C10.1275,10.606 9.76350001,9.976 9.24550001,9.472 Z" id="汉" fill="#5E5E5E"></path>
            </g>
        </g>
    </g>
</svg>