<?xml version="1.0" encoding="UTF-8"?>
<svg width="24px" height="24px" viewBox="0 0 24 24" version="1.1" xmlns="http://www.w3.org/2000/svg" xmlns:xlink="http://www.w3.org/1999/xlink">
    <!-- Generator: Sketch 48.2 (47327) - http://www.bohemiancoding.com/sketch -->
    <title>语文-hover</title>
    <desc>Created with Sketch.</desc>
    <defs></defs>
    <g id="Page-1" stroke="none" stroke-width="1" fill="none" fill-rule="evenodd">
        <g id="语文-hover">
            <rect id="Rectangle-5" fill="#D8D8D8" x="6" y="6" width="12" height="12"></rect>
            <rect id="Rectangle-5" stroke="#5E5E5E" x="4.5" y="4.5" width="15" height="15" rx="2"></rect>
            <path d="M4,12 L7,12" id="Path-6" stroke="#5E5E5E"></path>
            <path d="M17,12 L20,12" id="Path-6" stroke="#5E5E5E"></path>
            <path d="M10.5,5.5 L13.5,5.5" id="Path-6" stroke="#5E5E5E" transform="translate(12.000000, 5.500000) rotate(-270.000000) translate(-12.000000, -5.500000) "></path>
            <path d="M10.5,18.5 L13.5,18.5" id="Path-6" stroke="#5E5E5E" transform="translate(12.000000, 18.500000) rotate(-270.000000) translate(-12.000000, -18.500000) "></path>
            <path d="M8.51350001,8.922 C8.21950001,8.32 8.10750001,7.83 8.21950001,7.41 C8.41550001,6.892 8.62550001,6.766 8.89150001,6.976 C8.97550001,7.046 9.05950001,7.214 9.18550001,7.452 C9.29750001,7.718 9.43750001,7.942 9.61950001,8.11 C9.77350001,8.306 9.91350001,8.488 10.0395,8.642 C10.0955,8.712 10.0675,8.824 9.96950001,8.964 C9.85750001,9.104 9.67550001,9.146 9.45150001,9.118 C9.17150001,9.104 8.96150001,9.09 8.82150001,9.076 C8.65350001,9.076 8.54150001,9.034 8.51350001,8.922 Z M6.69350001,13.696 C6.58150001,12.87 6.69350001,12.016 7.02950001,11.106 C7.29550001,10.21 7.54750001,9.846 7.77150001,10.014 C7.98150001,10.182 8.19150001,10.364 8.41550001,10.574 C8.59750001,10.798 8.49950001,11.008 8.13550001,11.218 C7.70150001,11.554 7.42150001,12.142 7.32350001,12.996 C7.22550001,13.836 7.28150001,14.326 7.49150001,14.41 C7.82750001,14.55 8.23350001,14.382 8.73750001,13.892 C9.19950001,13.416 9.59150001,12.842 9.91350001,12.17 C10.0815,11.792 10.1375,11.876 10.0955,12.394 C9.92750001,13.024 9.71750001,13.584 9.49350001,14.046 C9.24150001,14.522 8.89150001,14.998 8.42950001,15.502 C8.23350001,15.698 8.06550001,15.922 7.92550001,16.146 C7.77150001,16.398 7.57550001,16.258 7.36550001,15.712 C6.98750001,15.194 6.74950001,14.522 6.69350001,13.696 Z M13.2455,13.472 C12.5455,14.396 11.5935,15.054 10.4455,15.418 C10.1235,15.53 9.81550001,15.544 9.56350001,15.474 C9.28350001,15.404 9.26950001,15.32 9.52150001,15.222 C10.5575,14.844 11.4535,14.13 12.2515,13.094 C12.3075,13.01 12.3635,12.926 12.4195,12.828 C11.9015,12.45 11.5795,12.142 11.4675,11.904 C11.3135,11.596 11.0475,11.442 10.7255,11.4 C10.2775,11.316 10.1935,11.008 10.4455,10.476 C10.6695,9.958 10.8515,9.846 11.0475,10.126 C11.0755,10.406 11.2575,10.644 11.5935,10.812 C11.8455,10.952 12.2655,11.386 12.8955,12.058 C13.3015,11.386 13.5815,10.798 13.7215,10.28 C13.9175,9.538 13.8895,9.146 13.6655,9.118 C13.2735,9.076 12.6435,9.23 11.8035,9.622 C11.6915,9.678 11.5375,9.594 11.3695,9.356 C11.1455,9.146 11.1455,9.034 11.3695,8.978 C11.8875,8.754 12.4755,8.53 13.1195,8.25 C13.7495,7.984 14.2395,7.942 14.5895,8.068 C14.8835,8.138 15.2335,8.306 15.6255,8.572 C16.0175,8.852 16.0455,9.062 15.7375,9.188 C15.2755,9.356 14.8975,9.804 14.6315,10.546 C14.3235,11.302 14.0015,12.044 13.6795,12.814 C13.6515,12.856 13.6235,12.898 13.6095,12.926 C14.2115,13.612 14.7575,14.116 15.2755,14.438 C15.5415,14.634 15.9335,14.83 16.4375,14.998 C16.9275,15.194 17.5855,15.516 18.4115,15.936 C18.7195,16.118 18.8735,16.216 18.8735,16.272 C18.8455,16.328 18.4815,16.398 17.8095,16.468 C16.7735,16.524 15.6955,16.384 14.6035,16.048 C14.3515,15.95 14.2535,15.852 14.2815,15.754 C14.2955,15.67 14.3095,15.544 14.3095,15.362 C14.1275,14.606 13.7635,13.976 13.2455,13.472 Z" id="汉" fill="#5E5E5E"></path>
        </g>
    </g>
</svg>