<?xml version="1.0" encoding="UTF-8"?>
<svg width="24px" height="24px" viewBox="0 0 24 24" version="1.1" xmlns="http://www.w3.org/2000/svg" xmlns:xlink="http://www.w3.org/1999/xlink">
    <!-- Generator: Sketch 48.2 (47327) - http://www.bohemiancoding.com/sketch -->
    <title>英语-normal</title>
    <desc>Created with Sketch.</desc>
    <defs></defs>
    <g id="Page-1" stroke="none" stroke-width="1" fill="none" fill-rule="evenodd">
        <g id="英语-normal" stroke="#5E5E5E">
            <rect id="Rectangle-5" x="4.5" y="4.5" width="15" height="15" rx="2"></rect>
            <polyline id="Path-3" points="12 9.5 7.5 9.5 7.5 15.5 12 15.5"></polyline>
            <path d="M7.5,12.5 L12,12.5" id="Path-4"></path>
            <g id="Group" transform="translate(4.000000, 4.000000)">
                <rect id="Rectangle-5" x="0.5" y="0.5" width="15" height="15" rx="2"></rect>
                <polyline id="Path-3" points="8 5.5 3.5 5.5 3.5 11.5 8 11.5"></polyline>
                <path d="M3.5,8.5 L8,8.5" id="Path-4"></path>
                <path d="M12.5,12 L12.5,9 C12.5,8.17157288 11.8284271,7.5 11,7.5 L11,7.5 C10.1715729,7.5 9.5,8.17157288 9.5,9 L9.5,12" id="Path-4"></path>
            </g>
            <path d="M13.5,11 L13.5,14" id="Path-26"></path>
        </g>
    </g>
</svg>