<?xml version="1.0" encoding="UTF-8"?>
<svg width="24px" height="24px" viewBox="0 0 24 24" version="1.1" xmlns="http://www.w3.org/2000/svg" xmlns:xlink="http://www.w3.org/1999/xlink">
    <!-- Generator: Sketch 48.2 (47327) - http://www.bohemiancoding.com/sketch -->
    <title>历史-normal</title>
    <desc>Created with Sketch.</desc>
    <defs></defs>
    <g id="Page-1" stroke="none" stroke-width="1" fill="none" fill-rule="evenodd">
        <g id="历史-normal" stroke="#5E5E5E">
            <path d="M3,7.5 L21,7.5" id="Path-10"></path>
            <path d="M5.5,5 L5.5,14.5 C5.5,15.6045695 6.3954305,16.5 7.5,16.5 L16.5,16.5 C17.6045695,16.5 18.5,15.6045695 18.5,14.5 L18.5,5" id="Path-11"></path>
            <polyline id="Path-12" transform="translate(15.000000, 10.000000) scale(-1, 1) translate(-15.000000, -10.000000) " points="16.5 7.5 16.5 12.5 13.5 12.5 13.5 10.5 15 10.5"></polyline>
            <polyline id="Path-12" points="10.5 7.5 10.5 12.5 7.5 12.5 7.5 10.5 9 10.5"></polyline>
            <path d="M8.5,16.5 L7.5,19.5" id="Path-13"></path>
            <path d="M16.5,16.5 L15.5,19.5" id="Path-13" transform="translate(16.000000, 18.000000) scale(-1, 1) translate(-16.000000, -18.000000) "></path>
        </g>
    </g>
</svg>