<?xml version="1.0" encoding="UTF-8"?>
<svg width="24px" height="24px" viewBox="0 0 24 24" version="1.1" xmlns="http://www.w3.org/2000/svg" xmlns:xlink="http://www.w3.org/1999/xlink">
    <!-- Generator: Sketch 48.2 (47327) - http://www.bohemiancoding.com/sketch -->
    <title>数学-normal</title>
    <desc>Created with Sketch.</desc>
    <defs></defs>
    <g id="Page-1" stroke="none" stroke-width="1" fill="none" fill-rule="evenodd">
        <g id="数学-normal" stroke="#5E5E5E">
            <path d="M6,8.5 L11,8.5" id="Path-6"></path>
            <path d="M8.5,6 L8.5,11" id="Path-7"></path>
            <path d="M6.5,13.5 L10.5,17.5 L6.5,13.5 Z" id="Path-6"></path>
            <path d="M10.5,13.5 L6.5,17.5 L10.5,13.5 Z" id="Path-7"></path>
            <path d="M6,4.5 C5.17157288,4.5 4.5,5.17157288 4.5,6 L4.5,18 C4.5,18.8284271 5.17157288,19.5 6,19.5 L18,19.5 C18.8284271,19.5 19.5,18.8284271 19.5,18 L19.5,6 C19.5,5.17157288 18.8284271,4.5 18,4.5 L6,4.5 Z" id="Rectangle-5"></path>
            <path d="M13,8.5 L18,8.5" id="Path-6"></path>
            <path d="M13,15.5 L18,15.5" id="Path-6"></path>
            <path d="M15.5,13 L15.5,14" id="Path-25"></path>
            <path d="M15.5,17 L15.5,18" id="Path-25"></path>
        </g>
    </g>
</svg>