<?xml version="1.0" encoding="UTF-8"?>
<svg width="24px" height="24px" viewBox="0 0 24 24" version="1.1" xmlns="http://www.w3.org/2000/svg" xmlns:xlink="http://www.w3.org/1999/xlink">
    <!-- Generator: Sketch 48.2 (47327) - http://www.bohemiancoding.com/sketch -->
    <title>物理-hover</title>
    <desc>Created with Sketch.</desc>
    <defs>
        <path d="M4,3 L4,8 C4,9.65685425 5.34314575,11 7,11 C8.65685425,11 10,9.65685425 10,8 L10,3 L14,3 L14,8 C14,11.8659932 10.8659932,15 7,15 C3.13400675,15 4.73447626e-16,11.8659932 0,8 L0,3 L4,3 Z" id="path-1"></path>
    </defs>
    <g id="Page-1" stroke="none" stroke-width="1" fill="none" fill-rule="evenodd">
        <g id="物理-hover">
            <g id="Group" transform="translate(5.000000, 5.000000)">
                <g id="Combined-Shape">
                    <use fill="#D8D8D8" fill-rule="evenodd" xlink:href="#path-1"></use>
                    <path stroke="#5E5E5E" stroke-width="1" d="M3.5,3.5 L0.5,3.5 L0.5,8 C0.5,11.5898509 3.41014913,14.5 7,14.5 C10.5898509,14.5 13.5,11.5898509 13.5,8 L13.5,3.5 L10.5,3.5 L10.5,8 C10.5,9.93299662 8.93299662,11.5 7,11.5 C5.06700338,11.5 3.5,9.93299662 3.5,8 L3.5,3.5 Z"></path>
                </g>
                <path d="M3.5,0.5 L0.5,0.5 L0.5,8 C0.5,11.5898509 3.41014913,14.5 7,14.5 C10.5898509,14.5 13.5,11.5898509 13.5,8 L13.5,0.5 L10.5,0.5 L10.5,8 C10.5,9.93299662 8.93299662,11.5 7,11.5 C5.06700338,11.5 3.5,9.93299662 3.5,8 L3.5,0.5 Z" id="Combined-Shape" stroke="#5E5E5E"></path>
                <path d="M10.5,3.5 L13.5,3.5" id="Path-5" stroke="#5E5E5E"></path>
                <path d="M0.5,3.5 L3.5,3.5" id="Path-5" stroke="#5E5E5E"></path>
            </g>
        </g>
    </g>
</svg>