<?xml version="1.0" encoding="UTF-8"?>
<svg width="16px" height="16px" viewBox="0 0 16 16" version="1.1" xmlns="http://www.w3.org/2000/svg" xmlns:xlink="http://www.w3.org/1999/xlink">
    <!-- Generator: Sketch 48.1 (47250) - http://www.bohemiancoding.com/sketch -->
    <title>icon/input clear/hover</title>
    <desc>Created with Sketch.</desc>
    <defs></defs>
    <g id="icon-小图标" stroke="none" stroke-width="1" fill="none" fill-rule="evenodd">
        <g id="icon/input-clear/hover" fill="#5E5E5E">
            <path d="M8.80812204,7.99999143 L11.8326324,4.97548102 C12.0557892,4.75232428 12.0557892,4.39051572 11.8326324,4.16735898 C11.6094757,3.94420224 11.2476671,3.94420224 11.0245104,4.16735898 L8,7.19186939 L4.97548959,4.16735898 C4.75233285,3.94420224 4.39052429,3.94420224 4.16736755,4.16735898 C3.94421082,4.39051572 3.94421082,4.75232428 4.16736755,4.97548102 L7.19187796,7.99999143 L4.16736755,11.0245018 C3.94421082,11.2476586 3.94421082,11.6094671 4.16736755,11.8326239 C4.39052429,12.0557806 4.75233285,12.0557806 4.97548959,11.8326239 L8,8.80811346 L11.0245104,11.8326239 C11.2476671,12.0557806 11.6094757,12.0557806 11.8326324,11.8326239 C12.0557892,11.6094671 12.0557892,11.2476586 11.8326324,11.0245018 L8.80812204,7.99999143 Z M8,16 C3.581722,16 0,12.418278 0,8 C0,3.581722 3.581722,0 8,0 C12.418278,0 16,3.581722 16,8 C16,12.418278 12.418278,16 8,16 Z" id="input_clear_hover"></path>
        </g>
    </g>
</svg>