<?xml version="1.0" encoding="UTF-8"?>
<svg width="36px" height="40px" viewBox="0 0 36 40" version="1.1" xmlns="http://www.w3.org/2000/svg" xmlns:xlink="http://www.w3.org/1999/xlink">
    <!-- Generator: Sketch 48.1 (47250) - http://www.bohemiancoding.com/sketch -->
    <title>header bar/button/menu/normal</title>
    <desc>Created with Sketch.</desc>
    <defs></defs>
    <g id="header-bar-标题栏" stroke="none" stroke-width="1" fill="none" fill-rule="evenodd">
        <g id="header-bar/button/menu/normal">
            <g id="menu_normal">
                <rect id="Rectangle-6" fill="#D8D8D8" opacity="0" x="0" y="0" width="36" height="40"></rect>
                <path d="M12.5,15 L12,15 L12,14 L12.5,14 L19.5,14 L20,14 L20,15 L19.5,15 L12.5,15 Z M12.5647059,20 L12,20 L12,19 L12.5647059,19 L23.4352941,19 L24,19 L24,20 L23.4352941,20 L12.5647059,20 Z M12.5647059,25 L12,25 L12,24 L12.5647059,24 L23.4352941,24 L24,24 L24,25 L23.4352941,25 L12.5647059,25 Z" id="Combined-Shape" fill="#5E5E5E" fill-rule="nonzero"></path>
            </g>
        </g>
    </g>
</svg>